<mxfile host="app.diagrams.net" modified="2020-12-15T19:46:21.402Z" agent="5.0 (Windows NT 10.0; Win64; x64) AppleWebKit/537.36 (KHTML, like Gecko) Chrome/87.0.4280.88 Safari/537.36" etag="DVVg8aPqRFwuMemoXjTM" version="14.0.1" type="github">
  <diagram id="x_YZykusHeIEPyjD5kzw" name="Page-1">
    <mxGraphModel dx="981" dy="526" grid="1" gridSize="10" guides="1" tooltips="1" connect="1" arrows="1" fold="1" page="1" pageScale="1" pageWidth="827" pageHeight="1169" math="0" shadow="0">
      <root>
        <mxCell id="0" />
        <mxCell id="1" parent="0" />
        <mxCell id="i5OjP39XmHSMRuiCbzn2-15" value="alt" style="shape=umlFrame;whiteSpace=wrap;html=1;" vertex="1" parent="1">
          <mxGeometry x="130" y="190" width="480" height="260" as="geometry" />
        </mxCell>
        <mxCell id="i5OjP39XmHSMRuiCbzn2-1" value=":Client" style="shape=umlLifeline;perimeter=lifelinePerimeter;whiteSpace=wrap;html=1;container=1;collapsible=0;recursiveResize=0;outlineConnect=0;" vertex="1" parent="1">
          <mxGeometry x="40" y="40" width="100" height="430" as="geometry" />
        </mxCell>
        <mxCell id="i5OjP39XmHSMRuiCbzn2-19" value="1.2: null" style="html=1;verticalAlign=bottom;endArrow=open;dashed=1;endSize=8;" edge="1" parent="i5OjP39XmHSMRuiCbzn2-1" source="i5OjP39XmHSMRuiCbzn2-5">
          <mxGeometry relative="1" as="geometry">
            <mxPoint x="130" y="230" as="sourcePoint" />
            <mxPoint x="50" y="230" as="targetPoint" />
          </mxGeometry>
        </mxCell>
        <mxCell id="i5OjP39XmHSMRuiCbzn2-2" value=":Proxy" style="shape=umlLifeline;perimeter=lifelinePerimeter;whiteSpace=wrap;html=1;container=1;collapsible=0;recursiveResize=0;outlineConnect=0;" vertex="1" parent="1">
          <mxGeometry x="200" y="40" width="100" height="430" as="geometry" />
        </mxCell>
        <mxCell id="i5OjP39XmHSMRuiCbzn2-5" value="" style="html=1;points=[];perimeter=orthogonalPerimeter;" vertex="1" parent="i5OjP39XmHSMRuiCbzn2-2">
          <mxGeometry x="45" y="70" width="10" height="330" as="geometry" />
        </mxCell>
        <mxCell id="i5OjP39XmHSMRuiCbzn2-3" value=":AccessService" style="shape=umlLifeline;perimeter=lifelinePerimeter;whiteSpace=wrap;html=1;container=1;collapsible=0;recursiveResize=0;outlineConnect=0;" vertex="1" parent="1">
          <mxGeometry x="380" y="40" width="100" height="430" as="geometry" />
        </mxCell>
        <mxCell id="i5OjP39XmHSMRuiCbzn2-8" value="" style="html=1;points=[];perimeter=orthogonalPerimeter;" vertex="1" parent="i5OjP39XmHSMRuiCbzn2-3">
          <mxGeometry x="45" y="100" width="10" height="30" as="geometry" />
        </mxCell>
        <mxCell id="i5OjP39XmHSMRuiCbzn2-4" value=":RealService" style="shape=umlLifeline;perimeter=lifelinePerimeter;whiteSpace=wrap;html=1;container=1;collapsible=0;recursiveResize=0;outlineConnect=0;" vertex="1" parent="1">
          <mxGeometry x="520" y="40" width="100" height="430" as="geometry" />
        </mxCell>
        <mxCell id="i5OjP39XmHSMRuiCbzn2-11" value="" style="html=1;points=[];perimeter=orthogonalPerimeter;" vertex="1" parent="i5OjP39XmHSMRuiCbzn2-4">
          <mxGeometry x="45" y="290" width="10" height="70" as="geometry" />
        </mxCell>
        <mxCell id="i5OjP39XmHSMRuiCbzn2-6" value="1: getData()" style="html=1;verticalAlign=bottom;endArrow=block;entryX=0;entryY=0;" edge="1" target="i5OjP39XmHSMRuiCbzn2-5" parent="1" source="i5OjP39XmHSMRuiCbzn2-1">
          <mxGeometry relative="1" as="geometry">
            <mxPoint x="175" y="110" as="sourcePoint" />
          </mxGeometry>
        </mxCell>
        <mxCell id="i5OjP39XmHSMRuiCbzn2-9" value="1.1: checkAccess(userName)" style="html=1;verticalAlign=bottom;endArrow=block;entryX=0;entryY=0;" edge="1" target="i5OjP39XmHSMRuiCbzn2-8" parent="1" source="i5OjP39XmHSMRuiCbzn2-5">
          <mxGeometry relative="1" as="geometry">
            <mxPoint x="339" y="140" as="sourcePoint" />
          </mxGeometry>
        </mxCell>
        <mxCell id="i5OjP39XmHSMRuiCbzn2-10" value="1.1.1: userHasAccess" style="html=1;verticalAlign=bottom;endArrow=open;dashed=1;endSize=8;exitX=0;exitY=0.95;" edge="1" source="i5OjP39XmHSMRuiCbzn2-8" parent="1" target="i5OjP39XmHSMRuiCbzn2-5">
          <mxGeometry relative="1" as="geometry">
            <mxPoint x="260" y="169" as="targetPoint" />
          </mxGeometry>
        </mxCell>
        <mxCell id="i5OjP39XmHSMRuiCbzn2-7" value="1.4: data" style="html=1;verticalAlign=bottom;endArrow=open;dashed=1;endSize=8;exitX=0;exitY=0.95;" edge="1" source="i5OjP39XmHSMRuiCbzn2-5" parent="1" target="i5OjP39XmHSMRuiCbzn2-1">
          <mxGeometry relative="1" as="geometry">
            <mxPoint x="175" y="186" as="targetPoint" />
          </mxGeometry>
        </mxCell>
        <mxCell id="i5OjP39XmHSMRuiCbzn2-12" value="1.3: getData()" style="html=1;verticalAlign=bottom;endArrow=block;entryX=0;entryY=0;" edge="1" target="i5OjP39XmHSMRuiCbzn2-11" parent="1" source="i5OjP39XmHSMRuiCbzn2-2">
          <mxGeometry relative="1" as="geometry">
            <mxPoint x="290" y="260" as="sourcePoint" />
          </mxGeometry>
        </mxCell>
        <mxCell id="i5OjP39XmHSMRuiCbzn2-13" value="1.3.1: data" style="html=1;verticalAlign=bottom;endArrow=open;dashed=1;endSize=8;exitX=0;exitY=0.95;" edge="1" source="i5OjP39XmHSMRuiCbzn2-11" parent="1" target="i5OjP39XmHSMRuiCbzn2-2">
          <mxGeometry relative="1" as="geometry">
            <mxPoint x="495" y="286" as="targetPoint" />
          </mxGeometry>
        </mxCell>
        <mxCell id="i5OjP39XmHSMRuiCbzn2-16" value="[!userHasAccess]" style="text;html=1;strokeColor=none;fillColor=none;align=center;verticalAlign=middle;whiteSpace=wrap;rounded=0;" vertex="1" parent="1">
          <mxGeometry x="170" y="230" width="40" height="20" as="geometry" />
        </mxCell>
        <mxCell id="i5OjP39XmHSMRuiCbzn2-18" value="" style="line;strokeWidth=1;fillColor=none;align=left;verticalAlign=middle;spacingTop=-1;spacingLeft=3;spacingRight=3;rotatable=0;labelPosition=right;points=[];portConstraint=eastwest;" vertex="1" parent="1">
          <mxGeometry x="130" y="296" width="480" height="8" as="geometry" />
        </mxCell>
        <mxCell id="i5OjP39XmHSMRuiCbzn2-20" value="[userHasAccess]" style="text;html=1;strokeColor=none;fillColor=none;align=center;verticalAlign=middle;whiteSpace=wrap;rounded=0;" vertex="1" parent="1">
          <mxGeometry x="170" y="310" width="40" height="20" as="geometry" />
        </mxCell>
      </root>
    </mxGraphModel>
  </diagram>
</mxfile>
